<?xml version="1.0" encoding="UTF-8"?>
<!DOCTYPE svg PUBLIC "-//W3C//DTD SVG 1.1//EN" "http://www.w3.org/Graphics/SVG/1.1/DTD/svg11.dtd">
<svg xmlns="http://www.w3.org/2000/svg" version="1.1" width="128px" height="128px" style="shape-rendering:geometricPrecision; text-rendering:geometricPrecision; image-rendering:optimizeQuality; fill-rule:evenodd; clip-rule:evenodd" xmlns:xlink="http://www.w3.org/1999/xlink">
<g><path style="opacity:0.805" fill="#000000" d="M 42.5,-0.5 C 46.5,-0.5 50.5,-0.5 54.5,-0.5C 65.259,5.35741 68.4257,14.0241 64,25.5C 62.3333,28.5 60,30.8333 57,32.5C 56.3333,35.5 56.3333,38.5 57,41.5C 60.6321,46.1337 64.6321,50.467 69,54.5C 69.3333,42.5 69.6667,30.5 70,18.5C 70.5,18 71,17.5 71.5,17C 84.8333,16.3333 98.1667,16.3333 111.5,17C 112.126,17.7504 112.626,18.5838 113,19.5C 113.667,31.5 113.667,43.5 113,55.5C 112.691,56.7659 112.191,57.9326 111.5,59C 108.167,59.3333 104.833,59.6667 101.5,60C 103.268,64.3687 102.268,68.0354 98.5,71C 85.9289,72.6269 73.2623,72.9602 60.5,72C 58.04,70.5422 55.8734,68.7089 54,66.5C 53.3333,68.1667 53.3333,69.8333 54,71.5C 59.1018,77.3576 64.4351,83.0243 70,88.5C 70.6667,89.8333 71.3333,91.1667 72,92.5C 72.6667,102.5 72.6667,112.5 72,122.5C 70.975,124.687 69.475,126.354 67.5,127.5C 64.8333,127.5 62.1667,127.5 59.5,127.5C 57.525,126.354 56.025,124.687 55,122.5C 54.6667,114.5 54.3333,106.5 54,98.5C 52.3333,96.8333 50.6667,95.1667 49,93.5C 47.8443,97.1228 46.8443,100.789 46,104.5C 39.825,112.197 33.6583,119.864 27.5,127.5C 24.5,127.5 21.5,127.5 18.5,127.5C 13.3456,123.208 12.5123,118.208 16,112.5C 20.3333,107.167 24.6667,101.833 29,96.5C 35.4057,74.9671 38.4057,52.9671 38,30.5C 30.4526,23.4421 29.1193,15.4421 34,6.5C 36.4412,3.54644 39.2745,1.21311 42.5,-0.5 Z M 44.5,4.5 C 55.9842,3.81645 61.1509,9.14978 60,20.5C 55.301,28.9874 48.801,30.6541 40.5,25.5C 34.2658,17.0314 35.5991,10.0314 44.5,4.5 Z M 74.5,21.5 C 77.1667,21.5 79.8333,21.5 82.5,21.5C 82.334,26.8437 82.5006,32.1771 83,37.5C 83.5613,38.0219 84.228,38.3552 85,38.5C 86.8449,37.2442 88.8449,36.2442 91,35.5C 93.2623,36.3825 95.429,37.3825 97.5,38.5C 98.4419,38.3918 99.2753,38.0585 100,37.5C 100.499,32.1771 100.666,26.8437 100.5,21.5C 102.833,21.5 105.167,21.5 107.5,21.5C 107.5,32.5 107.5,43.5 107.5,54.5C 96.5,54.5 85.5,54.5 74.5,54.5C 74.5,43.5 74.5,32.5 74.5,21.5 Z M 87.5,21.5 C 90.1667,21.5 92.8333,21.5 95.5,21.5C 95.8174,24.5719 95.4841,27.5719 94.5,30.5C 92.3888,27.9557 90.2221,27.9557 88,30.5C 87.502,27.5184 87.3354,24.5184 87.5,21.5 Z M 43.5,33.5 C 46.0679,34.4496 48.5679,34.4496 51,33.5C 51.5625,35.8661 51.3958,38.1994 50.5,40.5C 50.7189,41.938 51.2189,43.2713 52,44.5C 56.3839,49.4285 60.8839,54.2619 65.5,59C 75.1667,59.3333 84.8333,59.6667 94.5,60C 98.5,62.3333 98.5,64.6667 94.5,67C 83.8333,67.6667 73.1667,67.6667 62.5,67C 58.2733,62.5598 54.2733,57.8932 50.5,53C 48.2945,52.2681 46.6278,52.9348 45.5,55C 47.2495,57.0859 48.5828,59.4192 49.5,62C 48.4285,66.1236 48.2618,70.2903 49,74.5C 55,81.1667 61,87.8333 67,94.5C 67.6667,102.833 67.6667,111.167 67,119.5C 65.1735,123.037 62.8402,123.371 60,120.5C 59.6667,112.167 59.3333,103.833 59,95.5C 53,88.8333 47,82.1667 41,75.5C 41.7202,61.5174 42.5535,47.5174 43.5,33.5 Z M 38.5,82.5 C 41.0145,84.1816 43.0145,86.3483 44.5,89C 43.4111,93.1889 42.2445,97.3555 41,101.5C 35.62,108.425 30.12,115.258 24.5,122C 20.5126,122.339 19.0126,120.506 20,116.5C 24.3333,111.167 28.6667,105.833 33,100.5C 35.4527,94.6892 37.286,88.6892 38.5,82.5 Z"/></g>
</svg>
