<?xml version="1.0" encoding="UTF-8"?>
<!DOCTYPE svg PUBLIC "-//W3C//DTD SVG 1.1//EN" "http://www.w3.org/Graphics/SVG/1.1/DTD/svg11.dtd">
<svg xmlns="http://www.w3.org/2000/svg" version="1.1" width="512px" height="512px" style="shape-rendering:geometricPrecision; text-rendering:geometricPrecision; image-rendering:optimizeQuality; fill-rule:evenodd; clip-rule:evenodd" xmlns:xlink="http://www.w3.org/1999/xlink">
<g><path style="opacity:0.953" fill="#000000" d="M 511.5,338.5 C 511.5,341.5 511.5,344.5 511.5,347.5C 509.628,350.529 506.961,352.695 503.5,354C 499.5,355 495.5,356 491.5,357C 501.562,367.524 505.395,380.024 503,394.5C 497.636,416.528 483.636,428.528 461,430.5C 429.52,426.225 415.187,408.225 418,376.5C 374.206,388.574 330.372,400.574 286.5,412.5C 298.603,427.939 300.603,444.605 292.5,462.5C 297.132,463.328 301.798,463.828 306.5,464C 311.794,467.435 313.627,472.268 312,478.5C 310.878,480.624 309.378,482.457 307.5,484C 285.395,485.151 263.228,485.651 241,485.5C 219.833,485.333 198.667,485.167 177.5,485C 169.121,480.909 167.288,474.742 172,466.5C 173.255,465.789 174.421,464.956 175.5,464C 189.179,463.833 202.846,463.333 216.5,462.5C 211.732,453.305 210.398,443.639 212.5,433.5C 208.92,433.258 205.253,433.091 201.5,433C 197.23,431.73 194.73,428.896 194,424.5C 161.511,303.544 129.178,182.544 97,61.5C 96.586,61.0426 96.086,60.7093 95.5,60.5C 93.8244,71.3626 88.491,79.8626 79.5,86C 66.4276,90.8013 53.0943,94.8013 39.5,98C 19.7871,100.75 6.45375,92.9163 -0.5,74.5C -0.5,69.1667 -0.5,63.8333 -0.5,58.5C 2.36314,49.7961 7.69647,42.9628 15.5,38C 31.9974,31.6249 48.9974,27.6249 66.5,26C 76.0581,27.44 83.7248,31.94 89.5,39.5C 96.2955,36.2069 103.296,35.3736 110.5,37C 113.467,39.1005 115.3,41.9338 116,45.5C 122.844,71.8767 129.844,98.2101 137,124.5C 137.561,125.022 138.228,125.355 139,125.5C 189.188,112.078 239.355,98.5779 289.5,85C 298.627,82.8185 304.127,86.3185 306,95.5C 315.511,132.507 325.677,169.174 336.5,205.5C 359.073,199.023 381.74,192.856 404.5,187C 412.921,184.459 418.421,187.292 421,195.5C 433.879,244.688 447.212,293.688 461,342.5C 474.514,338.205 488.18,334.539 502,331.5C 506.197,332.543 509.364,334.876 511.5,338.5 Z M 61.5,47.5 C 69.2652,48.4286 72.7652,52.762 72,60.5C 71.6541,62.8477 70.4875,64.6811 68.5,66C 56.4066,70.274 44.0733,73.774 31.5,76.5C 20.9007,73.3099 18.9007,67.3099 25.5,58.5C 37.5087,54.5034 49.5087,50.8367 61.5,47.5 Z M 283.5,109.5 C 285.124,109.36 286.29,110.027 287,111.5C 295.838,144.852 304.671,178.186 313.5,211.5C 266.123,223.958 218.789,236.625 171.5,249.5C 161.48,216.262 152.147,182.762 143.5,149C 143.905,148.055 144.572,147.388 145.5,147C 158.139,143.883 170.639,140.383 183,136.5C 188.822,157.456 194.489,178.456 200,199.5C 204.623,206.94 210.789,208.44 218.5,204C 222.905,199.717 227.405,195.55 232,191.5C 239.633,194.034 247.467,195.2 255.5,195C 260.297,193.421 262.964,190.088 263.5,185C 257.74,163.215 252.073,141.382 246.5,119.5C 259.062,116.611 271.396,113.278 283.5,109.5 Z M 223.5,125.5 C 228.046,139.83 232.379,154.33 236.5,169C 232.843,168.892 229.177,168.892 225.5,169C 222.418,170.409 219.585,172.242 217,174.5C 212.54,159.991 208.706,145.325 205.5,130.5C 211.776,129.434 217.776,127.767 223.5,125.5 Z M 397.5,211.5 C 399.167,211.5 400.833,211.5 402.5,211.5C 414.343,257.203 426.343,302.87 438.5,348.5C 377.383,364.363 316.383,380.696 255.5,397.5C 254.029,396.619 253.196,395.286 253,393.5C 248.333,376.167 243.667,358.833 239,341.5C 235.867,335.673 231.034,333.507 224.5,335C 219.727,337.107 217.394,340.774 217.5,346C 222.109,364.937 227.109,383.77 232.5,402.5C 226.06,405.112 219.394,407.112 212.5,408.5C 200.495,362.811 188.662,317.144 177,271.5C 203.455,264.094 229.955,256.761 256.5,249.5C 262.609,268.592 268.109,287.925 273,307.5C 274.952,317.557 280.786,321.057 290.5,318C 295.742,313.136 301.242,308.636 307,304.5C 314.356,306.84 321.856,308.006 329.5,308C 334.452,306.27 337.119,302.77 337.5,297.5C 332.145,276.08 326.478,254.747 320.5,233.5C 333.585,228.857 346.919,225.357 360.5,223C 365.738,241.45 370.905,259.95 376,278.5C 382.267,286.968 388.933,287.302 396,279.5C 396.704,277.722 397.204,275.888 397.5,274C 392.574,254.462 387.574,234.962 382.5,215.5C 387.809,214.924 392.809,213.591 397.5,211.5 Z M 296.5,238.5 C 297.496,238.414 298.329,238.748 299,239.5C 302.835,253.506 306.668,267.506 310.5,281.5C 310,281.833 309.5,282.167 309,282.5C 305.545,281.45 302.045,281.283 298.5,282C 296,283.833 293.5,285.667 291,287.5C 286.854,272.899 283.021,258.233 279.5,243.5C 285.402,242.279 291.068,240.612 296.5,238.5 Z M 454.5,366.5 C 470.019,364.861 479.019,371.694 481.5,387C 479.213,401.953 470.546,408.62 455.5,407C 440.56,400.68 436.56,390.18 443.5,375.5C 446.315,371.341 449.982,368.341 454.5,366.5 Z M 249.5,421.5 C 264.685,420.426 273.352,427.426 275.5,442.5C 273.421,454.746 266.255,461.746 254,463.5C 235.148,458.465 229.815,447.132 238,429.5C 241.482,426.161 245.315,423.494 249.5,421.5 Z"/></g>
<g><path style="opacity:0.907" fill="#000000" d="M 389.5,292.5 C 400.64,291.467 406.307,296.634 406.5,308C 403.369,318.062 397.036,320.729 387.5,316C 383.079,309.747 382.246,303.247 385,296.5C 386.397,294.93 387.897,293.596 389.5,292.5 Z"/></g>
<g><path style="opacity:0.913" fill="#000000" d="M 215.5,301.5 C 224.063,299.693 229.23,303.026 231,311.5C 232.094,325.033 226.26,329.533 213.5,325C 206.167,316.24 206.833,308.407 215.5,301.5 Z"/></g>
<g><path style="opacity:0.915" fill="#000000" d="M 328.5,463.5 C 332.846,463.334 337.179,463.501 341.5,464C 349.424,469.214 350.424,475.547 344.5,483C 337.307,486.681 330.473,486.181 324,481.5C 319.884,474.027 321.384,468.027 328.5,463.5 Z"/></g>
</svg>
